<?xml version="1.0" encoding="UTF-8"?>
<svg xmlns="http://www.w3.org/2000/svg" width="960" height="480" viewBox="0 0 960 480">
  <defs>
    <style>text{font-family:-apple-system,"Segoe UI",sans-serif}</style>
    <marker id="a" markerWidth="8" markerHeight="8" refX="7" refY="3" orient="auto">
      <path d="M0,0 L0,6 L8,3 z" fill="#333"/>
    </marker>
    <marker id="ad" markerWidth="8" markerHeight="8" refX="7" refY="3" orient="auto">
      <path d="M0,0 L0,6 L8,3 z" fill="#999"/>
    </marker>
  </defs>
  <rect x="0" y="0" width="960" height="480" fill="#ffffff"/>
<circle cx="80" cy="160" r="30" fill="#fff" stroke="#333" stroke-width="1.5"/>
<text x="80" y="165" font-size="12" fill="#222" text-anchor="middle" font-weight="normal">Client</text>
<rect x="180" y="136" width="120" height="48" rx="8" fill="#fff" stroke="#333" stroke-width="1.5"/>
<text x="240" y="165" font-size="13" fill="#222" text-anchor="middle" font-weight="normal">Server</text>
<rect x="360" y="100" width="130" height="48" rx="8" fill="#fff" stroke="#333" stroke-width="1.5"/>
<text x="425" y="129" font-size="13" fill="#222" text-anchor="middle" font-weight="normal">Supabase</text>
<rect x="360" y="168" width="130" height="48" rx="8" fill="#FFEBEE" stroke="#E57373" stroke-width="1.5"/>
<text x="425" y="186" font-size="12" fill="#222" text-anchor="middle" font-weight="normal">Supabase</text>
<text x="425" y="202" font-size="11" fill="#C62828" text-anchor="middle" font-weight="normal">(재조회)</text>
<line x1="110" y1="160" x2="178" y2="160" stroke="#333" stroke-width="1.4" marker-end="url(#a)"/>
<text x="145" y="153" font-size="10" fill="#555" text-anchor="middle" font-weight="normal">요청</text>
<line x1="300" y1="148" x2="358" y2="124" stroke="#333" stroke-width="1.4" marker-end="url(#a)"/>
<text x="340" y="128" font-size="10" fill="#555" text-anchor="middle" font-weight="normal">1</text>
<line x1="358" y1="192" x2="300" y2="175" stroke="#333" stroke-width="1.4" marker-end="url(#a)"/>
<text x="340" y="195" font-size="10" fill="#999" text-anchor="middle" font-weight="normal">2  rows</text>
<line x1="300" y1="175" x2="358" y2="192" stroke="#333" stroke-width="1.4" marker-end="url(#a)"/>
<text x="360" y="170" font-size="10" fill="#555" text-anchor="middle" font-weight="normal">3</text>
<line x1="358" y1="205" x2="300" y2="184" stroke="#333" stroke-width="1.4" marker-end="url(#a)"/>
<text x="340" y="215" font-size="10" fill="#C62828" text-anchor="middle" font-weight="normal">4  rows</text>
<line x1="180" y1="170" x2="112" y2="170" stroke="#333" stroke-width="1.4" marker-end="url(#a)"/>
<text x="145" y="180" font-size="10" fill="#555" text-anchor="middle" font-weight="normal">응답</text>
<text x="260" y="248" font-size="11" fill="#C62828" text-anchor="middle" font-weight="normal">매 요청마다 Supabase 재조회</text>
<text x="260" y="265" font-size="12" fill="#C62828" text-anchor="middle" font-weight="bold">→ LCP 9.0s</text>
<text x="260" y="88" font-size="13" fill="#C62828" text-anchor="middle" font-weight="bold">BEFORE</text>
<circle cx="540" cy="160" r="30" fill="#fff" stroke="#333" stroke-width="1.5"/>
<text x="540" y="165" font-size="12" fill="#222" text-anchor="middle" font-weight="normal">Client</text>
<rect x="640" y="136" width="120" height="48" rx="8" fill="#fff" stroke="#333" stroke-width="1.5"/>
<text x="700" y="165" font-size="13" fill="#222" text-anchor="middle" font-weight="normal">Server</text>
<rect x="820" y="100" width="120" height="48" rx="8" fill="#E8F5E9" stroke="#43A047" stroke-width="1.5"/>
<text x="880" y="122" font-size="13" fill="#2E7D32" text-anchor="middle" font-weight="bold">Cache</text>
<text x="880" y="139" font-size="10" fill="#2E7D32" text-anchor="middle" font-weight="normal">'use cache'</text>
<rect x="820" y="168" width="120" height="48" rx="8" fill="#fff" stroke="#bbb" stroke-width="1.5"/>
<text x="880" y="192" font-size="12" fill="#999" text-anchor="middle" font-weight="normal">Supabase</text>
<text x="880" y="207" font-size="10" fill="#bbb" text-anchor="middle" font-weight="normal">(최초 1회)</text>
<line x1="570" y1="160" x2="638" y2="160" stroke="#333" stroke-width="1.4" marker-end="url(#a)"/>
<text x="605" y="153" font-size="10" fill="#555" text-anchor="middle" font-weight="normal">요청</text>
<line x1="760" y1="148" x2="818" y2="120" stroke="#333" stroke-width="1.4" marker-end="url(#a)"/>
<text x="800" y="126" font-size="10" fill="#555" text-anchor="middle" font-weight="normal">1</text>
<line x1="818" y1="136" x2="760" y2="156" stroke="#333" stroke-width="1.4" marker-end="url(#a)"/>
<text x="800" y="148" font-size="10" fill="#2E7D32" text-anchor="middle" font-weight="normal">2  HIT</text>
<line x1="640" y1="170" x2="572" y2="170" stroke="#333" stroke-width="1.4" marker-end="url(#a)"/>
<text x="605" y="182" font-size="10" fill="#2E7D32" text-anchor="middle" font-weight="normal">즉시 반환</text>
<line x1="760" y1="162" x2="818" y2="178" stroke="#333" stroke-width="1.4" stroke-dasharray="5,4" marker-end="url(#ad)"/>
<line x1="818" y1="192" x2="760" y2="175" stroke="#333" stroke-width="1.4" stroke-dasharray="5,4" marker-end="url(#ad)"/>
<text x="720" y="248" font-size="11" fill="#2E7D32" text-anchor="middle" font-weight="normal">캐시 HIT → Supabase 호출 0회</text>
<text x="720" y="265" font-size="12" fill="#2E7D32" text-anchor="middle" font-weight="bold">→ LCP 4.4s  (-51%)</text>
<text x="720" y="88" font-size="13" fill="#2E7D32" text-anchor="middle" font-weight="bold">AFTER</text>
<line x1="480" y1="80" x2="480" y2="290" stroke="#ddd" stroke-width="1.5" stroke-dasharray="4,4"/>
<rect x="40" y="300" width="880" height="36" rx="6" fill="#f5f5f5" stroke="#e0e0e0" stroke-width="1"/>
<text x="480" y="323" font-size="11" fill="#555" text-anchor="middle" font-weight="normal">'use cache'   cacheLife('seconds')   cacheTag('jobs')   revalidateTag('jobs', 'max')</text>
<text x="480" y="40" font-size="16" fill="#111" text-anchor="middle" font-weight="bold">LCP 최적화  —  Largest Contentful Paint  9.0s → 4.4s</text>
</svg>