<?xml version="1.0" encoding="UTF-8"?>
<svg xmlns="http://www.w3.org/2000/svg" width="1080" height="600" viewBox="0 0 1080 600">
  <defs><style>text{font-family:-apple-system,"Segoe UI",sans-serif}</style></defs>
  <rect width="1080" height="600" fill="#FAFAFA"/>
<rect x="0" y="0" width="1080" height="600" rx="0" fill="#FAFAFA" stroke="#E2E8F0" stroke-width="1"/>
<text x="540" y="34" font-size="17" fill="#0F172A" text-anchor="middle" font-weight="700" font-family="inherit">Supabase Realtime UPDATE 미반영</text>
<text x="540" y="56" font-size="11" fill="#64748B" text-anchor="middle" font-weight="normal" font-family="inherit">REPLICA IDENTITY DEFAULT — payload.new에 변경된 컬럼만 포함됨</text>
<line x1="40" y1="68" x2="1040" y2="68" stroke="#E2E8F0" stroke-width="1"/>
<rect x="45" y="82" width="150" height="50" rx="8" fill="#EFF6FF" stroke="#3B82F6" stroke-width="1.5"/>
<text x="120" y="102" font-size="12" fill="#3B82F6" text-anchor="middle" font-weight="bold" font-family="inherit">Client A</text>
<text x="120" y="118" font-size="10" fill="#64748B" text-anchor="middle" font-weight="normal" font-family="inherit">메시지 삭제자</text>
<line x1="120" y1="132" x2="120" y2="560" stroke="#3B82F6" stroke-width="1.2" stroke-dasharray="6,4" opacity="0.4"/>
<rect x="465" y="82" width="150" height="50" rx="8" fill="#F5F3FF" stroke="#8B5CF6" stroke-width="1.5"/>
<text x="540" y="102" font-size="12" fill="#8B5CF6" text-anchor="middle" font-weight="bold" font-family="inherit">Supabase</text>
<text x="540" y="118" font-size="10" fill="#64748B" text-anchor="middle" font-weight="normal" font-family="inherit">DB + Realtime</text>
<line x1="540" y1="132" x2="540" y2="560" stroke="#8B5CF6" stroke-width="1.2" stroke-dasharray="6,4" opacity="0.4"/>
<rect x="845" y="82" width="150" height="50" rx="8" fill="#EFF6FF" stroke="#3B82F6" stroke-width="1.5"/>
<text x="920" y="102" font-size="12" fill="#3B82F6" text-anchor="middle" font-weight="bold" font-family="inherit">Client B</text>
<text x="920" y="118" font-size="10" fill="#64748B" text-anchor="middle" font-weight="normal" font-family="inherit">수신 화면</text>
<line x1="920" y1="132" x2="920" y2="560" stroke="#3B82F6" stroke-width="1.2" stroke-dasharray="6,4" opacity="0.4"/>
<rect x="40" y="152" width="1000" height="220" rx="8" fill="#FEF2F2" opacity="0.5"/>
<rect x="46" y="152" width="48.5" height="18" rx="4" fill="#FEF2F2" stroke="#EF4444"/><text x="70.25" y="165" font-size="10" fill="#EF4444" text-anchor="middle" font-weight="bold" font-family="inherit">❌  문제</text>
<line x1="120" y1="178" x2="531" y2="178" stroke="#3B82F6" stroke-width="1.8"/>
<polygon points="531,173 531,183 540,178" fill="#3B82F6"/>
<text x="330" y="170" font-size="10" fill="#3B82F6" text-anchor="middle" font-weight="normal" font-family="inherit">is_deleted = true  (UPDATE)</text>
<text x="40" y="178" font-size="10" fill="#94A3B8" text-anchor="start" font-weight="normal" font-family="inherit">1</text>
<line x1="540" y1="218" x2="911" y2="218" stroke="#8B5CF6" stroke-width="1.8"/>
<polygon points="911,213 911,223 920,218" fill="#8B5CF6"/>
<text x="730" y="210" font-size="10" fill="#8B5CF6" text-anchor="middle" font-weight="normal" font-family="inherit">payload.new  =  { id, is_deleted }</text>
<text x="40" y="218" font-size="10" fill="#94A3B8" text-anchor="start" font-weight="normal" font-family="inherit">2</text>
<rect x="620" y="224" width="240" height="36" rx="6" fill="#F3E8FF" stroke="#8B5CF6" stroke-width="1.5"/>
<text x="740" y="238" font-size="10" fill="#8B5CF6" text-anchor="middle" font-weight="bold" font-family="inherit">room_id →</text>
<text x="740" y="252" font-size="9" fill="#94A3B8" text-anchor="middle" font-weight="normal" font-family="inherit">undefined  (변경 안 됨 → 포함 안 됨)</text>
<rect x="820" y="272" width="190" height="40" rx="6" fill="#FFFFFF" stroke="#EF4444" stroke-width="1.5"/>
<text x="915" y="289" font-size="9" fill="#EF4444" text-anchor="middle" font-weight="normal" font-family="monospace">if (room_id !== currentRoom.id)</text>
<text x="915" y="305" font-size="9" fill="#EF4444" text-anchor="middle" font-weight="normal" font-family="monospace">→  undefined !== 'abc'  →  true</text>
<line x1="540" y1="292" x2="811" y2="292" stroke="#EF4444" stroke-width="1.8" stroke-dasharray="5,4"/>
<polygon points="811,287 811,297 820,292" fill="#EF4444"/>
<text x="680" y="284" font-size="10" fill="#EF4444" text-anchor="middle" font-weight="normal" font-family="inherit">early return  ❌</text>
<text x="40" y="292" font-size="10" fill="#94A3B8" text-anchor="start" font-weight="normal" font-family="inherit">3</text>
<rect x="820" y="328" width="190" height="32" rx="6" fill="#FEF2F2" stroke="#EF4444" stroke-width="1.5"/>
<text x="915" y="349" font-size="11" fill="#B91C1C" text-anchor="middle" font-weight="bold" font-family="inherit">화면 미반영  (버그)</text>
<text x="40" y="344" font-size="10" fill="#94A3B8" text-anchor="start" font-weight="normal" font-family="inherit">4</text>
<rect x="40" y="388" width="1000" height="156" rx="8" fill="#F0FDF4" opacity="0.6"/>
<rect x="46" y="388" width="48.5" height="18" rx="4" fill="#F0FDF4" stroke="#10B981"/><text x="70.25" y="401" font-size="10" fill="#10B981" text-anchor="middle" font-weight="bold" font-family="inherit">✓  해결</text>
<line x1="80" y1="385" x2="1000" y2="385" stroke="#10B981" stroke-width="1.2" stroke-dasharray="4,3"/>
<text x="540" y="381" font-size="10" fill="#047857" text-anchor="middle" font-weight="bold" font-family="inherit">수정 후</text>
<line x1="540" y1="418" x2="911" y2="418" stroke="#8B5CF6" stroke-width="1.8"/>
<polygon points="911,413 911,423 920,418" fill="#8B5CF6"/>
<text x="730" y="410" font-size="10" fill="#8B5CF6" text-anchor="middle" font-weight="normal" font-family="inherit">payload.new  =  { id, is_deleted }</text>
<text x="40" y="418" font-size="10" fill="#94A3B8" text-anchor="start" font-weight="normal" font-family="inherit">5</text>
<rect x="820" y="432" width="190" height="40" rx="6" fill="#FFFFFF" stroke="#10B981" stroke-width="1.5"/>
<text x="915" y="449" font-size="9" fill="#047857" text-anchor="middle" font-weight="normal" font-family="monospace">prev.some(m =&gt; m.id === id)</text>
<text x="915" y="465" font-size="9" fill="#047857" text-anchor="middle" font-weight="normal" font-family="monospace">→  true  →  업데이트 진행</text>
<line x1="540" y1="452" x2="811" y2="452" stroke="#10B981" stroke-width="1.8"/>
<polygon points="811,447 811,457 820,452" fill="#10B981"/>
<text x="680" y="444" font-size="10" fill="#10B981" text-anchor="middle" font-weight="normal" font-family="inherit">ID 기반 귀속 판단  ✓</text>
<text x="40" y="452" font-size="10" fill="#94A3B8" text-anchor="start" font-weight="normal" font-family="inherit">6</text>
<rect x="820" y="488" width="190" height="32" rx="6" fill="#F0FDF4" stroke="#10B981" stroke-width="1.5"/>
<text x="915" y="509" font-size="11" fill="#047857" text-anchor="middle" font-weight="bold" font-family="inherit">실시간 UI 동기화  ✓</text>
<text x="40" y="504" font-size="10" fill="#94A3B8" text-anchor="start" font-weight="normal" font-family="inherit">7</text>
</svg>