<?xml version="1.0" encoding="UTF-8"?>
<svg xmlns="http://www.w3.org/2000/svg" width="1080" height="520" viewBox="0 0 1080 520">
  <defs><style>text{font-family:-apple-system,"Segoe UI",sans-serif}</style></defs>
  <rect width="1080" height="520" fill="#FAFAFA"/>
<rect x="0" y="0" width="1080" height="520" rx="0" fill="#FAFAFA" stroke="#E2E8F0" stroke-width="1"/>
<text x="540" y="34" font-size="17" fill="#0F172A" text-anchor="middle" font-weight="700" font-family="inherit">SSR ↔ TanStack Query 정렬 불일치</text>
<text x="540" y="56" font-size="11" fill="#64748B" text-anchor="middle" font-weight="normal" font-family="inherit">staleTime 만료 후 re-fetch 시 서버/클라이언트 정렬 기준 충돌</text>
<line x1="40" y1="68" x2="1040" y2="68" stroke="#E2E8F0" stroke-width="1"/>
<rect x="40" y="80" width="490" height="390" rx="10" fill="#FEF2F2" opacity="0.4"/>
<rect x="48" y="80" width="68.0" height="18" rx="4" fill="#FEF2F2" stroke="#EF4444"/><text x="82.0" y="93" font-size="10" fill="#EF4444" text-anchor="middle" font-weight="bold" font-family="inherit">❌  문제 흐름</text>
<rect x="105" y="104" width="360" height="54" rx="8" fill="#EFF6FF" stroke="#3B82F6" stroke-width="1.5"/>
<text x="285" y="125" font-size="11" fill="#3B82F6" text-anchor="middle" font-weight="bold" font-family="inherit">Vercel (SSR 렌더링)</text>
<text x="285" y="142" font-size="9.5" fill="#64748B" text-anchor="middle" font-weight="normal" font-family="inherit">정렬 기준: created_at DESC  (최신 등록순)</text>
<line x1="285" y1="172" x2="285" y2="187" stroke="#3B82F6" stroke-width="1.8"/>
<polygon points="280,187 290,187 285,196" fill="#3B82F6"/>
<text x="299" y="188" font-size="10" fill="#3B82F6" text-anchor="start" font-weight="normal" font-family="inherit">프리페치 결과 hydration</text>
<rect x="105" y="196" width="360" height="54" rx="8" fill="#EFF6FF" stroke="#3B82F6" stroke-width="1.5"/>
<text x="285" y="217" font-size="11" fill="#3B82F6" text-anchor="middle" font-weight="bold" font-family="inherit">Browser 초기 화면</text>
<text x="285" y="234" font-size="9.5" fill="#64748B" text-anchor="middle" font-weight="normal" font-family="inherit">목록 순서: 2026-06-18 등록순으로 표시</text>
<line x1="285" y1="264" x2="285" y2="279" stroke="#94A3B8" stroke-width="1.8"/>
<polygon points="280,279 290,279 285,288" fill="#94A3B8"/>
<text x="299" y="280" font-size="10" fill="#94A3B8" text-anchor="start" font-weight="normal" font-family="inherit">⏱  staleTime 30s 경과</text>
<rect x="105" y="288" width="360" height="54" rx="8" fill="#F5F3FF" stroke="#8B5CF6" stroke-width="1.5"/>
<text x="285" y="309" font-size="11" fill="#8B5CF6" text-anchor="middle" font-weight="bold" font-family="inherit">포커스 이벤트 → re-fetch</text>
<text x="285" y="326" font-size="9.5" fill="#64748B" text-anchor="middle" font-weight="normal" font-family="inherit">TanStack Query 기본값: sortBy = 'deadline'</text>
<line x1="285" y1="356" x2="285" y2="371" stroke="#8B5CF6" stroke-width="1.8"/>
<polygon points="280,371 290,371 285,380" fill="#8B5CF6"/>
<text x="299" y="372" font-size="10" fill="#8B5CF6" text-anchor="start" font-weight="normal" font-family="inherit">클라이언트 재요청</text>
<rect x="105" y="380" width="360" height="48" rx="8" fill="#FEF2F2" stroke="#EF4444" stroke-width="1.5"/>
<text x="285" y="400" font-size="12" fill="#B91C1C" text-anchor="middle" font-weight="bold" font-family="inherit">목록 순서 교체  ❌</text>
<text x="285" y="417" font-size="9.5" fill="#B91C1C" text-anchor="middle" font-weight="normal" font-family="inherit">work_date ASC (마감임박순)으로 갑자기 변경</text>
<rect x="550" y="80" width="490" height="390" rx="10" fill="#F0FDF4" opacity="0.4"/>
<rect x="558" y="80" width="61.5" height="18" rx="4" fill="#F0FDF4" stroke="#10B981"/><text x="588.75" y="93" font-size="10" fill="#10B981" text-anchor="middle" font-weight="bold" font-family="inherit">✓  해결 후</text>
<rect x="615" y="104" width="360" height="54" rx="8" fill="#F0FDF4" stroke="#10B981" stroke-width="1.5"/>
<text x="795" y="125" font-size="11" fill="#10B981" text-anchor="middle" font-weight="bold" font-family="inherit">Vercel (SSR 렌더링)</text>
<text x="795" y="142" font-size="9.5" fill="#64748B" text-anchor="middle" font-weight="normal" font-family="inherit">정렬 기준: work_date ASC  (마감임박순) ← 통일</text>
<line x1="795" y1="172" x2="795" y2="187" stroke="#10B981" stroke-width="1.8"/>
<polygon points="790,187 800,187 795,196" fill="#10B981"/>
<text x="809" y="188" font-size="10" fill="#10B981" text-anchor="start" font-weight="normal" font-family="inherit">동일 기준으로 hydration</text>
<rect x="615" y="196" width="360" height="54" rx="8" fill="#F0FDF4" stroke="#10B981" stroke-width="1.5"/>
<text x="795" y="217" font-size="11" fill="#10B981" text-anchor="middle" font-weight="bold" font-family="inherit">Browser 초기 화면</text>
<text x="795" y="234" font-size="9.5" fill="#64748B" text-anchor="middle" font-weight="normal" font-family="inherit">목록 순서: 마감임박순으로 표시</text>
<line x1="795" y1="264" x2="795" y2="279" stroke="#94A3B8" stroke-width="1.8"/>
<polygon points="790,279 800,279 795,288" fill="#94A3B8"/>
<text x="809" y="280" font-size="10" fill="#94A3B8" text-anchor="start" font-weight="normal" font-family="inherit">⏱  staleTime 30s 경과</text>
<rect x="615" y="288" width="360" height="54" rx="8" fill="#F5F3FF" stroke="#8B5CF6" stroke-width="1.5"/>
<text x="795" y="309" font-size="11" fill="#8B5CF6" text-anchor="middle" font-weight="bold" font-family="inherit">포커스 이벤트 → re-fetch</text>
<text x="795" y="326" font-size="9.5" fill="#64748B" text-anchor="middle" font-weight="normal" font-family="inherit">sortBy = 'deadline'  (동일 기준)</text>
<line x1="795" y1="356" x2="795" y2="371" stroke="#8B5CF6" stroke-width="1.8"/>
<polygon points="790,371 800,371 795,380" fill="#8B5CF6"/>
<text x="809" y="372" font-size="10" fill="#8B5CF6" text-anchor="start" font-weight="normal" font-family="inherit">동일 파라미터로 재요청</text>
<rect x="615" y="380" width="360" height="48" rx="8" fill="#F0FDF4" stroke="#10B981" stroke-width="1.5"/>
<text x="795" y="400" font-size="12" fill="#047857" text-anchor="middle" font-weight="bold" font-family="inherit">순서 유지  ✓</text>
<text x="795" y="417" font-size="9.5" fill="#047857" text-anchor="middle" font-weight="normal" font-family="inherit">SSR · 클라이언트 정렬 기준 통일 → 일관성 확보</text>
<line x1="540" y1="85" x2="540" y2="465" stroke="#E2E8F0" stroke-width="1.5" stroke-dasharray="6,4"/>
<rect x="40" y="476" width="1000" height="34" rx="6" fill="#FFFFFF" stroke="#1D4ED8" stroke-width="1"/>
<text x="540" y="498" font-size="10" fill="#1D4ED8" text-anchor="middle" font-weight="normal" font-family="inherit">핵심: SSR prefetchInfiniteQuery의 정렬 기준과 TanStack Query queryKey의 기본 필터가 100% 일치해야 hydration 이후 re-fetch 시 데이터가 교체되지 않음</text>
</svg>